HIERARCHY
ROOT SpineBase
{
  OFFSET 0.000000 0.000000 0.000000
  CHANNELS 6 Xposition Yposition Zposition Zrotation Xrotation Yrotation
  JOINT SpineMid
  {
    OFFSET 0.000000 26.622211 0.000000
    CHANNELS 3 Zrotation Xrotation Yrotation
    JOINT SpineShoulder
    {
      OFFSET 0.045394 19.892797 -0.754207
      CHANNELS 3 Zrotation Xrotation Yrotation
      JOINT Neck
      {
        OFFSET 0.027268 6.624772 -0.539265
        CHANNELS 3 Zrotation Xrotation Yrotation
        JOINT Head
        {
          OFFSET -2.780254 11.752161 2.552368
          CHANNELS 3 Zrotation Xrotation Yrotation
          End Site
          {
            OFFSET 0 0 0
          }
        }
      }
      JOINT ShoulderLeft
      {
        OFFSET -12.159879 -3.020369 4.114181
        CHANNELS 3 Zrotation Xrotation Yrotation
        JOINT ElbowLeft
        {
          OFFSET -1.732901 -23.280152 7.603186
          CHANNELS 3 Zrotation Xrotation Yrotation
          JOINT WristLeft
          {
            OFFSET -2.011884 -18.253562 -1.759186
            CHANNELS 3 Zrotation Xrotation Yrotation
            JOINT HandLeft
            {
              OFFSET -1.273515 -5.469489 -2.910280
              CHANNELS 3 Zrotation Xrotation Yrotation
              JOINT HandTipLeft
              {
                OFFSET -0.136986 -4.901679 -0.170451
                CHANNELS 3 Zrotation Xrotation Yrotation
                End Site
                {
                  OFFSET 0 0 0
                }
              }
              JOINT ThumbLeft
              {
                OFFSET -1.543311 0.912527 -1.303494
                CHANNELS 3 Zrotation Xrotation Yrotation
                End Site
                {
                  OFFSET 0 0 0
                }
              }
            }
          }
        }
      }
      JOINT ShoulderRight
      {
        OFFSET 10.645792 -1.938118 -6.881930
        CHANNELS 3 Zrotation Xrotation Yrotation
        JOINT ElbowRight
        {
          OFFSET 7.754654 -19.880907 -3.302967
          CHANNELS 3 Zrotation Xrotation Yrotation
          JOINT WristRight
          {
            OFFSET -2.208793 -19.567692 -7.016005
            CHANNELS 3 Zrotation Xrotation Yrotation
            JOINT HandRight
            {
              OFFSET -1.915808 -6.684880 -2.301650
              CHANNELS 3 Zrotation Xrotation Yrotation
              JOINT HandTipRight
              {
                OFFSET -0.446400 -6.135393 -1.096204
                CHANNELS 3 Zrotation Xrotation Yrotation
                End Site
                {
                  OFFSET 0 0 0
                }
              }
              JOINT ThumbRight
              {
                OFFSET 0.055522 -1.555446 -2.702126
                CHANNELS 3 Zrotation Xrotation Yrotation
                End Site
                {
                  OFFSET 0 0 0
                }
              }
            }
          }
        }
      }
    }
  }
  JOINT HipLeft
  {
    OFFSET -5.468293 0.541502 -1.153453
    CHANNELS 3 Zrotation Xrotation Yrotation
    JOINT KneeLeft
    {
      OFFSET 3.722702 -33.193514 0.773025
      CHANNELS 3 Zrotation Xrotation Yrotation
      JOINT AnkleLeft
      {
        OFFSET 5.294441 -32.499024 3.655848
        CHANNELS 3 Zrotation Xrotation Yrotation
        JOINT FootLeft
        {
          OFFSET -1.683165 -6.547402 -0.239111
          CHANNELS 3 Zrotation Xrotation Yrotation
          End Site
          {
            OFFSET 0 0 0
          }
        }
      }
    }
  }
  JOINT HipRight
  {
    OFFSET 5.108530 1.210707 -4.786881
    CHANNELS 3 Zrotation Xrotation Yrotation
    JOINT KneeRight
    {
      OFFSET 4.478011 -33.343957 -2.341834
      CHANNELS 3 Zrotation Xrotation Yrotation
      JOINT AnkleRight
      {
        OFFSET 1.141178 -33.868856 5.305239
        CHANNELS 3 Zrotation Xrotation Yrotation
        JOINT FootRight
        {
          OFFSET -4.220856 -4.188547 -5.662562
          CHANNELS 3 Zrotation Xrotation Yrotation
          End Site
          {
            OFFSET 0 0 0
          }
        }
      }
    }
  }
}
MOTION
Frames: 9
Frame Time: 0.033333
21.796577 71.698438 362.140316 -0.000000 0.000000 18.958996 -0.000000 0.000000 -18.958996 -0.000000 0.000000 0.000000 -0.000000 0.000000 0.000000 0.000000 0.000000 0.000000 -0.000000 0.000000 0.000000 -0.000000 0.000000 0.000000 -0.000000 0.000000 0.000000 -0.000000 0.000000 0.000000 0.000000 0.000000 0.000000 0.000000 0.000000 0.000000 -0.000000 0.000000 0.000000 -0.000000 0.000000 0.000000 -0.000000 0.000000 0.000000 -0.000000 0.000000 0.000000 0.000000 0.000000 0.000000 0.000000 0.000000 0.000000 -0.000000 0.000000 -18.958996 -0.000000 0.000000 0.000000 -0.000000 0.000000 0.000000 0.000000 0.000000 0.000000 -0.000000 0.000000 -18.958996 -0.000000 0.000000 0.000000 -0.000000 0.000000 0.000000 0.000000 0.000000 0.000000
21.786261 71.705672 361.996430 -0.019341 0.132509 18.763884 -0.024311 -0.131688 -18.763890 -0.000000 0.000000 0.000000 -0.000000 0.000000 0.000000 0.000000 0.000000 0.000000 -0.905822 -3.333708 -0.073244 0.904987 6.630393 -0.342233 3.140707 4.203960 -3.000366 0.995373 6.081396 2.671696 0.000000 0.000000 0.000000 0.000000 0.000000 0.000000 5.348996 -1.260234 -1.300646 -6.906705 2.080559 1.881985 -3.508740 -0.200605 1.021921 1.200900 -1.084100 -0.817777 0.000000 0.000000 0.000000 0.000000 0.000000 0.000000 -0.024311 -0.131688 -18.763890 -0.000000 0.000000 0.000000 15.970828 11.426595 -5.311025 0.000000 0.000000 0.000000 -0.024311 -0.131688 -18.763890 -0.000000 0.000000 0.000000 1.971741 -4.764689 2.396376 0.000000 0.000000 0.000000
21.778667 71.716799 361.863806 -0.035455 0.241794 18.558534 -0.043345 -0.240505 -18.558550 -0.000000 0.000000 0.000000 -1.257214 -0.605690 0.123582 0.000000 0.000000 0.000000 -1.707902 -6.381531 -0.174174 1.796582 12.356050 -0.696303 6.122666 8.397854 -5.845133 0.916341 11.985617 4.861305 0.000000 0.000000 0.000000 0.000000 0.000000 0.000000 10.048077 -2.680888 -2.410175 -13.031397 3.953740 3.774026 -7.983697 -0.422199 2.279157 3.342228 -1.913378 -1.964482 0.000000 0.000000 0.000000 0.000000 0.000000 0.000000 -0.043345 -0.240505 -18.558550 -0.638037 -0.636780 -0.179109 28.651825 20.746750 -12.124672 0.000000 0.000000 0.000000 -0.043345 -0.240505 -18.558550 0.752550 0.501681 0.131552 3.270801 -9.734355 4.777468 0.000000 0.000000 0.000000
21.773796 71.731819 361.742443 -0.048353 0.327923 18.343182 -0.057305 -0.326477 -18.343207 -0.000000 0.000000 0.000000 -1.785220 -0.838228 0.177319 0.000000 0.000000 0.000000 -2.399801 -9.119314 -0.287113 2.672092 17.145263 -1.065208 8.596494 12.134082 -8.313544 0.025693 16.705676 6.540515 0.000000 0.000000 0.000000 0.000000 0.000000 0.000000 14.046923 -4.208089 -3.328335 -18.263103 5.637554 5.602486 -12.991260 -0.807472 3.643510 5.946069 -2.356053 -3.264358 0.000000 0.000000 0.000000 0.000000 0.000000 0.000000 -0.057305 -0.326477 -18.343207 -0.870971 -0.938713 -0.258125 36.907318 27.610089 -18.766498 0.000000 0.000000 0.000000 -0.057305 -0.326477 -18.343207 1.072946 0.728948 0.185934 4.995991 -13.935809 7.215265 0.000000 0.000000 0.000000
21.771647 71.750731 361.632343 -0.058040 0.390943 18.118033 -0.066412 -0.389608 -18.118060 -0.000000 0.000000 0.000000 -2.248498 -1.024768 0.227344 0.000000 0.000000 0.000000 -2.975685 -11.533187 -0.397357 3.526392 20.987365 -1.446659 10.289717 15.199231 -10.226694 -1.176004 20.121885 7.709130 0.000000 0.000000 0.000000 0.000000 0.000000 0.000000 17.339713 -5.802247 -4.072849 -22.537499 7.168490 7.308058 -17.708417 -1.482424 4.877468 8.178310 -2.191820 -4.446655 0.000000 0.000000 0.000000 0.000000 0.000000 0.000000 -0.066412 -0.389608 -18.118060 -1.046098 -1.230537 -0.329481 41.831341 33.628345 -24.789394 0.000000 0.000000 0.000000 -0.066412 -0.389608 -18.118060 1.350680 0.937038 0.232314 6.629096 -17.488881 9.513173 0.000000 0.000000 0.000000
21.772220 71.773536 361.533504 -0.064521 0.430886 17.883252 -0.070912 -0.429880 -17.883276 -0.000000 0.000000 0.000000 -2.648404 -1.165719 0.274663 0.000000 0.000000 0.000000 -3.430336 -13.617134 -0.491666 4.350902 23.883123 -1.832174 11.040447 17.563808 -11.476882 -2.277187 22.613892 8.374331 0.000000 0.000000 0.000000 0.000000 0.000000 0.000000 19.946353 -7.439271 -4.670876 -25.825350 8.592798 8.845617 -21.128406 -2.480428 5.715549 9.033583 -1.156627 -5.192015 0.000000 0.000000 0.000000 0.000000 0.000000 0.000000 -0.070912 -0.429880 -17.883276 -1.162819 -1.512845 -0.392702 43.979071 39.728916 -30.159096 0.000000 0.000000 0.000000 -0.070912 -0.429880 -17.883276 1.582253 1.123584 0.270494 8.046381 -20.316698 11.536237 0.000000 0.000000 0.000000
21.773623 71.807547 361.439382 -0.083841 0.456996 17.622874 -0.058450 -0.460932 -17.622775 -0.000000 0.000000 0.000000 -2.906080 -1.280112 0.298475 0.000000 0.000000 0.000000 -3.810119 -15.778537 -0.564077 5.098213 25.799078 -2.158346 11.137792 19.046344 -12.112747 -3.448992 25.235141 8.461301 0.000000 0.000000 0.000000 0.000000 0.000000 0.000000 21.740774 -9.629431 -5.243972 -28.040641 10.890723 10.419911 -21.455643 -5.189810 5.661508 5.571328 2.960860 -4.707640 0.000000 0.000000 0.000000 0.000000 0.000000 0.000000 -0.058450 -0.460932 -17.622775 -0.936147 -1.533117 -0.367547 37.366386 45.298021 -30.393507 0.000000 0.000000 0.000000 -0.669997 -1.026324 -17.699103 1.906318 1.946624 0.306801 5.618461 -14.640619 5.922965 0.000000 0.000000 0.000000
21.776987 71.845877 361.365620 -0.091989 0.437560 17.380188 -0.042915 -0.445060 -17.380003 -0.000000 0.000000 0.000000 -3.105422 -1.261285 0.345057 0.000000 0.000000 0.000000 -3.940677 -17.200559 -0.564355 5.819100 26.430333 -2.494152 10.132481 22.210891 -12.674464 -4.502660 26.202308 8.612543 0.000000 0.000000 0.000000 0.000000 0.000000 0.000000 23.035603 -11.501465 -5.668554 -29.555441 12.269243 11.739186 -18.530367 -5.978829 4.993631 -2.453772 4.878635 -2.571676 0.000000 0.000000 0.000000 0.000000 0.000000 0.000000 -0.042915 -0.445060 -17.380003 -0.940257 -1.855816 -0.423154 31.906155 54.305817 -32.732632 0.000000 0.000000 0.000000 -0.743039 -1.084037 -17.465898 2.285185 2.287489 0.357507 8.576205 -21.966721 12.813687 0.000000 0.000000 0.000000
21.782126 71.878557 361.307144 -0.075908 0.414040 17.117497 -0.049320 -0.418042 -17.117403 -0.000000 0.000000 0.000000 -3.427934 -1.330429 0.393920 0.000000 0.000000 0.000000 -3.978955 -18.199109 -0.541651 6.604195 26.497667 -2.858518 7.119391 22.602251 -11.293023 -3.731453 28.365130 7.815468 0.000000 0.000000 0.000000 0.000000 0.000000 0.000000 23.768383 -13.030419 -5.974183 -29.256313 13.456573 12.143424 -17.567641 -6.984932 5.010451 -7.146343 7.799759 -0.888982 0.000000 0.000000 0.000000 0.000000 0.000000 0.000000 -0.049320 -0.418042 -17.117403 -1.021053 -2.193290 -0.491415 22.911731 62.520388 -31.257618 0.000000 0.000000 0.000000 -0.800932 -1.069364 -17.203579 2.208531 2.257297 0.338776 10.169571 -23.944232 14.625481 0.000000 0.000000 0.000000
